<?xml version="1.0" standalone="no"?>
<!DOCTYPE svg PUBLIC "-//W3C//DTD SVG 20010904//EN"
 "http://www.w3.org/TR/2001/REC-SVG-20010904/DTD/svg10.dtd">
<svg version="1.0" xmlns="http://www.w3.org/2000/svg"
 width="512.000000pt" height="512.000000pt" viewBox="0 0 512.000000 512.000000"
 preserveAspectRatio="xMidYMid meet">
<metadata>
Created by potrace 1.14, written by Peter Selinger 2001-2017
</metadata>
<g transform="translate(0.000000,512.000000) scale(0.100000,-0.100000)"
fill="#000000" stroke="none">
<path d="M1947 5105 c-245 -47 -477 -215 -572 -416 l-17 -36 -117 -6 c-347
-15 -633 -240 -741 -582 -15 -48 -24 -106 -27 -186 l-6 -117 -36 -17 c-61 -29
-155 -101 -209 -159 -254 -279 -291 -685 -91 -1003 12 -20 12 -26 0 -46 -200
-318 -163 -724 91 -1003 54 -58 148 -130 209 -159 l36 -17 6 -117 c3 -80 12
-138 27 -186 108 -342 394 -567 741 -582 l117 -6 17 -36 c29 -61 101 -155 159
-209 279 -254 684 -291 1004 -91 20 12 26 12 55 -5 122 -71 217 -103 352 -118
281 -32 578 99 740 326 24 34 51 77 60 97 l17 36 117 6 c347 15 633 240 741
582 15 48 24 106 27 186 l6 117 36 17 c61 29 155 101 209 159 254 279 291 685
91 1004 -12 19 -12 25 0 45 200 318 163 724 -91 1003 -54 58 -148 130 -209
159 l-36 17 -6 117 c-3 80 -12 138 -27 186 -108 342 -394 567 -741 582 l-117
6 -17 36 c-29 61 -101 155 -159 209 -279 254 -685 291 -1003 91 -20 -12 -26
-12 -45 0 -57 36 -163 82 -230 101 -97 28 -258 34 -361 15z m244 -295 c93 -18
190 -71 279 -154 44 -42 85 -76 90 -76 5 0 46 34 90 76 130 121 264 173 415
160 130 -10 248 -67 340 -162 55 -58 96 -136 130 -249 15 -49 29 -93 31 -96 2
-4 48 4 101 17 219 53 394 11 532 -127 138 -138 180 -313 127 -532 -13 -53
-21 -99 -17 -101 3 -2 47 -16 96 -31 165 -50 269 -124 342 -247 37 -61 73
-189 73 -258 0 -137 -54 -262 -164 -380 -42 -44 -76 -85 -76 -90 0 -5 34 -46
76 -90 121 -130 173 -264 160 -415 -10 -131 -66 -246 -163 -339 -60 -58 -134
-97 -248 -131 -49 -15 -93 -29 -96 -31 -4 -2 4 -48 17 -101 53 -219 11 -394
-127 -532 -138 -138 -313 -180 -532 -127 -53 13 -99 21 -101 17 -2 -3 -16 -46
-31 -96 -34 -113 -75 -191 -130 -249 -92 -95 -210 -152 -340 -162 -151 -13
-285 39 -415 160 -44 42 -85 76 -90 76 -5 0 -46 -34 -90 -76 -130 -121 -264
-173 -415 -160 -130 10 -248 67 -340 162 -55 58 -96 136 -130 249 -15 50 -29
93 -31 96 -2 4 -48 -4 -101 -17 -219 -53 -394 -11 -532 127 -138 138 -180 313
-127 532 13 53 21 99 17 101 -3 2 -46 16 -96 31 -113 34 -191 75 -249 130 -95
92 -152 210 -162 340 -13 151 39 285 160 415 42 44 76 85 76 90 0 5 -34 46
-76 90 -121 130 -173 264 -160 415 10 131 66 246 163 339 60 58 134 97 248
131 50 15 93 29 96 31 4 2 -4 48 -17 101 -53 219 -11 394 127 532 138 138 313
180 532 127 53 -13 99 -21 101 -17 2 3 16 47 31 96 36 119 75 192 140 257 125
125 297 180 466 148z"/>
<path d="M2450 4018 c-341 -22 -659 -168 -909 -419 -159 -158 -275 -342 -346
-546 -69 -202 -84 -344 -85 -815 l0 -308 150 0 150 0 0 308 c0 447 16 586 84
761 56 142 130 254 246 374 153 160 332 264 540 316 107 27 156 32 288 32 312
-1 573 -110 798 -335 174 -175 274 -361 318 -592 37 -197 30 -536 -15 -681
-58 -185 -192 -365 -349 -465 -237 -152 -549 -175 -804 -59 -227 103 -403 312
-467 556 -29 112 -37 351 -15 455 43 203 193 364 395 424 80 24 251 22 332 -4
181 -56 329 -227 359 -415 18 -116 -6 -194 -80 -257 -71 -62 -161 -74 -245
-34 -98 46 -134 109 -142 253 l-6 93 -148 0 -149 0 0 -62 c2 -245 81 -409 255
-524 87 -58 155 -77 280 -78 166 -1 271 41 385 156 120 122 172 279 151 457
-41 333 -247 588 -566 697 -75 26 -90 28 -260 28 -162 1 -187 -1 -255 -23
-332 -104 -563 -372 -609 -704 -22 -159 -9 -402 30 -543 84 -306 279 -555 554
-709 240 -135 552 -175 825 -108 393 97 720 420 825 813 47 180 57 524 20 750
-49 302 -187 571 -406 789 -183 184 -379 299 -630 370 -164 46 -314 61 -499
49z"/>
</g>
</svg>
